<?xml version="1.0" encoding="utf-8"?>
<!-- Generator: Adobe Illustrator 27.5.0, SVG Export Plug-In . SVG Version: 6.00 Build 0)  -->
<svg version="1.1" id="Layer_1" xmlns="http://www.w3.org/2000/svg" xmlns:xlink="http://www.w3.org/1999/xlink" x="0px" y="0px"
	 viewBox="0 0 1000 1000" style="enable-background:new 0 0 1000 1000;" xml:space="preserve">
<style type="text/css">
	.st0{fill:#2489CA;}
	.st1{fill:#1070B3;}
	.st2{fill:#0877B9;}
	.st3{fill:#3C99D4;}
</style>
<path class="st0" d="M65.8,383.7c0,0-19.9-13.6,4-31.8l55.5-47.3c0,0,15.9-15.9,32.7-2l512.4,369.6v177.2c0,0-0.2,27.8-37.7,24.8
	L65.8,383.7z"/>
<path class="st1" d="M197.8,498L65.8,612.4c0,0-13.6,9.6,0,26.8l61.3,53.1c0,0,14.6,14.9,36.1-2l140-101.1L197.8,498z"/>
<path class="st2" d="M429.7,498.9l242.2-176.2l-1.6-176.3c0,0-10.3-38.5-44.8-18.4L303.2,407.5L429.7,498.9z"/>
<path class="st3" d="M632.6,874.3c14.1,13.7,31.1,9.2,31.1,9.2l188.7-88.6c24.2-15.7,20.8-35.2,20.8-35.2V230.6
	c0-23.3-25-31.3-25-31.3l-163.6-75.1c-35.7-21-59.2,3.8-59.2,3.8s30.1-20.7,44.8,18.4v699.7c0,4.8-1.1,9.5-3.2,13.8
	c-4.3,8.3-13.7,16-36.1,12.8L632.6,874.3z"/>
</svg>
