<?xml version="1.0" encoding="utf-8"?>
<!-- Generator: Adobe Illustrator 27.5.0, SVG Export Plug-In . SVG Version: 6.00 Build 0)  -->
<svg version="1.1" id="Layer_1" xmlns="http://www.w3.org/2000/svg" xmlns:xlink="http://www.w3.org/1999/xlink" x="0px" y="0px"
	 viewBox="0 0 1000 1000" style="enable-background:new 0 0 1000 1000;" xml:space="preserve">
<style type="text/css">
	.st0{stroke:#FFFFFF;stroke-width:38;}
	.st1{fill:#FFFFFF;}
</style>
<path class="st0" d="M562.7,407.7h98.1 M445.9,407.7H544 M331.4,407.7h98.1 M216.9,407.7h95.8 M100.1,407.7h98.1 M216.9,300.2h95.8
	 M331.4,300.2h98.1 M445.9,300.2H544 M445.9,192.8H544"/>
<path class="st1" d="M973.9,412.4c0,0-42.1-39.7-128.5-25.7c-9.3-67.8-81.8-107.5-81.8-107.5S695.9,361,745,452.1
	c-14,7-37.4,16.4-72.4,16.4H30c-11.7,44.4-11.7,338.8,310.7,338.8c231.3,0,404.2-107.5,486-303.7
	C948.2,512.9,973.9,412.4,973.9,412.4"/>
</svg>
