<?xml version="1.0" encoding="utf-8"?>
<!-- Generator: Adobe Illustrator 27.5.0, SVG Export Plug-In . SVG Version: 6.00 Build 0)  -->
<svg version="1.1" id="Layer_1" xmlns="http://www.w3.org/2000/svg" xmlns:xlink="http://www.w3.org/1999/xlink" x="0px" y="0px"
	 viewBox="0 0 1000 1000" style="enable-background:new 0 0 1000 1000;" xml:space="preserve">
<style type="text/css">
	.st0{fill:#FFFFFF;}
</style>
<path class="st0" d="M261.4,611.5l79.1-206h29.4l84.3,206h-31.1l-24-62.4H313l-22.6,62.4H261.4L261.4,611.5z M320.9,526.9h69.9
	l-21.5-57.1c-6.6-17.3-11.4-31.5-14.6-42.7c-2.7,13.4-6.4,26.5-11.1,39.4L320.9,526.9z M476,611.5v-206h77.7c13.7,0,24.1,0.7,31.3,2
	c10.1,1.7,18.6,4.9,25.4,9.6c6.8,4.7,12.3,11.4,16.5,19.9c4.2,8.8,6.4,18.4,6.3,28.1c0,17.5-5.6,32.3-16.7,44.5
	c-11.1,12.2-31.3,18.2-60.4,18.2h-52.9v83.8L476,611.5L476,611.5z M503.3,503.4h53.2c17.6,0,30.1-3.3,37.5-9.8
	c7.4-6.6,11.1-15.8,11.1-27.7c0-8.6-2.2-16-6.5-22.1c-4.1-6-10.2-10.3-17.2-12.2c-4.6-1.2-13.1-1.8-25.4-1.8h-52.7L503.3,503.4
	L503.3,503.4z M672.7,611.5v-206H700v206H672.7z"/>
<path class="st0" d="M717.9,798.3H500.1c-13.5-0.3-24.3-11.5-24-25c0.3-13.2,10.9-23.8,24-24h217.8c109.3,0,198.3-88.9,198.3-198.3
	c0-99.8-74.6-184.4-173.5-196.7l-17.4-2.2l-3.5-17.2C701.4,236,613.3,164.2,512.1,164.2c-118,0-214.1,96-214.1,214.1
	c0,2.4,0.1,4.9,0.2,8l1,28.2l-28.1-2.9c-5.9-0.6-11.8-0.9-17.7-0.9C160,410.6,84,486.6,84,579.9s76,169.3,169.3,169.3h59
	c13.5,0.3,24.3,11.5,24,25c-0.3,13.2-10.9,23.8-24,24h-59C133,798.3,35,700.4,35,580c0-119.1,95.8-216.2,214.4-218.3
	c9.2-145,134.2-255.2,279.2-246c55.2,3.5,107.9,24.3,150.6,59.5c41.8,34.5,72,81,86.4,133.2c115,22.5,199.6,123.9,199.6,242.6
	C965.2,687.6,854.5,798.3,717.9,798.3z"/>
<path class="st0" d="M556,879.5c-6.1,0-12-2.3-16.6-6.4l-107-98.1l101.3-105.5c9.6-9.6,25.1-9.5,34.7,0.1c9.2,9.3,9.5,24.2,0.7,33.9
	l-66.5,69.3l70,64.2c10,9.2,10.6,24.7,1.5,34.7C569.5,876.6,562.9,879.5,556,879.5L556,879.5z"/>
</svg>
