<?xml version="1.0" encoding="utf-8"?>
<!-- Generator: Adobe Illustrator 27.5.0, SVG Export Plug-In . SVG Version: 6.00 Build 0)  -->
<svg version="1.1" id="Layer_1" xmlns="http://www.w3.org/2000/svg" xmlns:xlink="http://www.w3.org/1999/xlink" x="0px" y="0px"
	 viewBox="0 0 1000 1000" style="enable-background:new 0 0 1000 1000;" xml:space="preserve">
<style type="text/css">
	.st0{fill:#FFFFFF;}
	.st1{fill:#EA4335;}
	.st2{fill:#4285F4;}
	.st3{fill:#34A853;}
	.st4{fill:#FBBC05;}
</style>
<g id="Layer_3">
	<path class="st0" d="M744.5,345.2c-65.2-68.2-174.9-121.5-268.2-134.8c-66.7-8.9-134.8,16.3-155.6,87.4
		c-13.3,48.9,8.9,117.1,56.3,143.7c-62.2,0-123,14.8-176.3,51.9c-93.4,65.2-72.6,191.2,29.6,229.7c41.5,16.3,85.9,22.2,130.4,17.8
		c38.5-3,66.7-20.7,87.4-44.5c50.4,10.4,102.2,29.6,143.7,34.1c93.4,10.4,237.1-8.9,266.7-117.1C883.8,529,803.8,407.5,744.5,345.2z
		"/>
</g>
<path class="st1" d="M628.9,306.7h29.6l83-83l4.4-35.6c-65.2-56.3-151.1-91.9-246-91.9c-170.4,0-315.6,117.1-358.6,274.1
	c8.9-5.9,28.2-1.5,28.2-1.5L334,342.3c0,0,8.9-13.3,13.3-13.3c38.5-43,94.8-66.7,152.6-66.7C548.9,260.8,593.4,277.1,628.9,306.7
	L628.9,306.7z"/>
<path class="st2" d="M858.6,370.4C839.3,299.3,799.3,237,746,189.6L628.9,306.7c47.4,37,77.1,96.3,77.1,160v20.7
	c56.3,0,103.7,45.9,103.7,103.7c0,56.3-45.9,103.7-103.7,103.7H500l-20.7,19.3v123l20.7,20.7h206c148.2,0,268.2-120,268.2-268.2
	C974.2,499.3,928.2,417.8,858.6,370.4L858.6,370.4z"/>
<path class="st3" d="M294,857.9h206V693.4H294c-14.8,0-29.6-3-43-8.9l-29.6,8.9l-83,83l-5.9,26.7C178.4,838.7,234.8,857.9,294,857.9
	L294,857.9z"/>
<path class="st4" d="M294,323C145.8,323,25.8,443,25.8,591.2c0,87.4,41.5,164.5,106.7,213.4l120-120c-37-16.3-60.8-53.3-60.8-93.4
	c0-56.3,45.9-103.7,103.7-103.7c41.5,0,77.1,25.2,93.4,60.8l120-120C458.5,364.5,381.5,323,294,323L294,323z"/>
</svg>
