<?xml version="1.0" encoding="utf-8"?>
<!-- Generator: Adobe Illustrator 27.5.0, SVG Export Plug-In . SVG Version: 6.00 Build 0)  -->
<svg version="1.1" id="Layer_1" xmlns="http://www.w3.org/2000/svg" xmlns:xlink="http://www.w3.org/1999/xlink" x="0px" y="0px"
	 viewBox="0 0 1000 1000" style="enable-background:new 0 0 1000 1000;" xml:space="preserve">
<style type="text/css">
	.st0{fill-rule:evenodd;clip-rule:evenodd;fill:url(#SVGID_1_);}
	.st1{fill-rule:evenodd;clip-rule:evenodd;fill:#24292E;}
</style>
<g>
	
		<linearGradient id="SVGID_1_" gradientUnits="userSpaceOnUse" x1="38.3761" y1="566.6216" x2="938.7681" y2="2067.2664" gradientTransform="matrix(1 0 0 1 1.333 -832)">
		<stop  offset="0" style="stop-color:#2383AE"/>
		<stop  offset="1" style="stop-color:#6DD7B9"/>
	</linearGradient>
	<path class="st0" d="M264.7,394.8c30.2-120.3,105.2-180.2,225.1-180.2c180.2,0,202.6,135,292.7,157.4
		c59.9,15.1,112.5-7.4,157.4-67.7c-30.2,119.9-105.2,180.2-225.1,180.2c-180.2,0-202.6-135-292.7-157.4
		C362.2,312.4,309.9,334.9,264.7,394.8L264.7,394.8z M39.7,665.1c30.2-120.3,105.2-180.2,225.1-180.2c180.2,0,202.6,135,292.7,157.4
		c59.9,15.1,112.5-7.4,157.4-67.7c-30.2,120.3-105.2,180.2-225.1,180.2c-180.2,0-202.6-135-292.7-157.4
		C137.1,582.7,84.5,605.2,39.7,665.1z"/>
	<path class="st1" d="M1103.9,422.4h-58.8v-35.3h158.9v35.3h-58.8v160h-41.2V422.4z M1280.8,564.7c-5.5,6.3-11.8,11.4-19.1,15.4
		c-7,4-16.2,5.9-27.2,5.9c-6.3,0-12.1-0.7-18.4-2.6c-5.9-1.5-10.7-4-15.1-7.7c-4.4-3.3-7.7-7.7-10.3-13.2s-4-11.8-4-19.5
		c0-9.9,2.2-18,6.6-24.3s10.3-11.4,17.3-14.3c7-3.3,15.1-5.9,23.9-7.4s18-2.2,27.2-2.6l18.4-0.7v-7c0-8.8-2.6-14.7-7.4-18
		c-4.8-3.3-10.7-4.8-17.3-4.8c-15.1,0-23.9,5.9-26.1,17.3l-34.9-3.3c2.6-15.1,9.2-25.7,19.9-32.4c10.7-6.6,25-9.9,42.7-9.9
		c11,0,20.2,1.5,27.9,4c7.7,2.6,14,6.6,18.4,11.4c4.8,5.1,8.1,11.4,10.3,18c2.2,7,3.3,15.1,3.3,23.5v90.5h-36.4v-18.4H1280.8z
		 M1280.1,518.7l-16.9,0.7c-8.1,0.4-14.7,1.1-19.5,2.6c-4.8,1.5-8.8,2.9-11.4,4.8c-2.6,1.8-4.4,4-5.5,6.6c-0.7,2.6-1.5,5.5-1.5,8.5
		c0,4.8,1.5,8.5,4.8,11c3.3,2.6,7.7,4,13.6,4c9.9,0,18-2.2,24.3-7c3.3-2.6,6.3-5.9,8.5-9.6c2.2-4,3.3-8.8,3.3-14.7L1280.1,518.7
		L1280.1,518.7z M1348.5,439.7h38.2v142.7h-38.2V439.7z M1347.7,387.1h39.3v34.6h-39.3V387.1z M1419.4,387.1h38.2v195.3h-38.2V387.1
		z M1475,439.7h41.6l19.9,94.9l27.2-93.4h33.5l25.7,93.8l19.9-94.9h40.8l-41.6,142.7h-37.1l-25.4-94.1l-25.7,94.1h-36.4L1475,439.7
		L1475,439.7z M1700.8,439.7h38.2v142.7h-38.2V439.7z M1700.4,387.1h39.3v34.6h-39.3V387.1z M1771.7,439.7h37.1v19.9
		c5.5-8.5,12.5-14.3,20.2-18.4c7.7-3.7,15.8-5.9,24.3-5.9c16.2,0,28.3,4.4,36,12.9s11.8,21.7,11.8,40.1v94.5h-38.2v-89.4
		c0-10.3-1.8-16.9-5.9-20.6c-4-3.7-8.8-5.5-15.4-5.5c-4.8,0-9.2,0.7-12.9,2.2c-3.7,1.5-7,3.7-9.9,6.3c-2.6,2.6-4.8,5.5-6.6,9.2
		s-2.6,7.7-2.6,11.8v86.1H1771L1771.7,439.7L1771.7,439.7z M2031.4,564c-9.9,15.1-26.5,23.5-44.5,23.2c-20.2,0-34.9-6.6-44.9-20.2
		c-9.9-13.6-14.7-32.4-14.7-56.3c0-10.3,1.5-20.6,4.4-30.5c2.9-9.2,7-17.3,12.1-23.9c5.1-6.6,11.8-11.8,19.5-15.4s16.2-5.5,26.1-5.5
		c7,0,14.3,1.5,21.3,4c7,2.6,13.6,7.7,19.9,14.7v-66.6h38.2v195.3h-37.1L2031.4,564L2031.4,564z M2030.6,509.5
		c0-9.2-0.7-16.5-2.6-22.1c-1.8-5.5-4-9.9-7.4-13.2c-3.3-3.3-7-5.1-10.7-6.6c-3.7-1.1-7.7-1.5-11.8-1.5c-4,0-8.1,0.7-11.8,2.6
		c-3.7,1.5-7,4-9.9,7.7c-2.9,3.7-5.1,8.1-6.6,13.6c-1.5,5.5-2.6,12.5-2.6,20.2c0,8.5,0.7,15.8,2.6,21.3c1.8,5.9,3.7,10.3,6.6,14
		c2.9,3.7,5.9,6.3,9.6,7.7s7.7,2.6,11.8,2.6c9.2,0,16.5-2.6,22.4-8.1c3.7-3.7,6.6-8.5,8.1-13.2c1.8-5.1,2.6-11.8,2.6-20.2
		L2030.6,509.5L2030.6,509.5z M2330.7,515.1c-1.1,10.3-3.3,19.9-7.4,28.7c-3.7,8.8-9.2,16.5-16.2,23.2c-7.4,6.6-15.8,11.8-25.4,15.1
		c-9.9,3.7-21.3,5.5-34.6,5.5c-14.7,0-27.9-2.6-39-7.4c-11-4.8-20.6-11.8-28.3-21c-7.7-8.8-13.2-19.9-17.3-32.4
		c-3.7-12.9-5.9-26.8-5.9-41.9c0-15.8,2.2-30.2,6.3-42.7s10.3-23.2,18-32.4c7.7-8.8,17.3-15.8,28.3-20.6c11-4.8,23.9-7,37.9-7
		c12.5,0,23.2,1.5,32.4,4.8c9.2,2.9,16.9,7.7,23.2,13.2c6.3,5.9,11.4,12.9,15.1,21c4,8.8,7,18,8.5,27.6l-40.5,5.1
		c-1.8-11.4-5.9-20.6-11.8-27.2c-5.5-6.6-14.7-9.9-27.2-9.9c-15.8,0-27.6,5.9-35.7,17.7s-12.1,28.3-12.1,50s4.4,38.6,12.9,50
		c8.1,11.4,21,18,34.9,17.7c12.5,0,22.1-3.3,27.9-9.6c5.9-6.3,9.6-15.8,11-27.9L2330.7,515.1z M2390.3,519.1
		c0.7,12.1,4.8,21,11.8,26.1c6.6,5.5,16.9,8.1,30.2,8.1c6.3,0,11.8-0.7,16.2-2.2c4.4-1.5,8.1-3.3,10.7-5.5c2.6-2.2,4.8-4.8,5.9-8.1
		c1.1-3.3,1.8-6.6,1.8-10.3c0-5.1-1.8-9.9-5.9-14.3c-3.7-4.4-11-7.7-21-9.6l-25.4-4.8c-10.3-1.8-18.8-4-26.5-7
		c-7.7-2.9-14-6.6-19.5-11.4c-5.1-4.8-9.2-10.3-11.8-17.3c-2.6-7-4-14.7-4-24.3c0-8.5,1.8-16.9,5.5-24.6c3.7-7,9.2-13.2,15.4-17.7
		c6.6-4.8,14.7-8.5,23.9-10.7c9.2-2.6,19.5-3.7,30.9-3.7c14.3,0,26.1,1.5,35.7,4.8s17.3,7.7,23.2,12.9c5.9,5.5,10.3,11.8,12.9,18.8
		c2.9,7,4.8,14.3,5.5,22.1l-38.6,4.8c-1.8-10.7-5.9-18.4-11.8-23.2c-5.9-4.8-14.3-7-26.1-7c-7,0-12.5,0.7-17.3,1.8
		c-4.4,1.1-8.1,2.6-10.7,4.8c-2.6,1.5-4.4,4-5.9,6.6c-1.1,2.6-1.5,5.1-1.5,8.1c0,7.4,2.2,12.9,6.3,16.5c4,3.7,11,6.6,21,8.5
		l26.8,5.1c21.3,4,36.8,11,46.7,20.2c9.9,9.2,14.7,23.2,14.7,40.5c0,8.5-1.5,16.5-4.8,23.5c-3.3,7.4-8.1,13.6-14.3,18.8
		c-7,5.9-15.1,9.9-23.5,12.5c-9.6,2.9-20.6,4.4-33.5,4.4c-26.8,0-47.1-5.5-61.4-17.3c-14-11.4-21.7-28.3-23.2-51.5L2390.3,519.1
		L2390.3,519.1z M2568.3,519.1c0.7,12.1,4.8,21,11.8,26.1c6.6,5.5,16.9,8.1,30.2,8.1c6.6,0,11.8-0.7,16.2-2.2
		c4.4-1.5,8.1-3.3,10.7-5.5c2.6-2.2,4.8-4.8,5.9-8.1c1.1-3.3,1.8-6.6,1.8-10.3c0-5.5-2.2-10.3-5.9-14.3c-4-4.4-11-7.7-21-9.6
		l-25.4-4.8c-10.3-1.8-18.8-4-26.5-7c-7.7-2.9-14-6.6-19.5-11.4c-5.1-4.8-9.2-10.3-11.8-17.3c-2.6-7-4-14.7-4-24.3
		c0-8.5,1.8-16.9,5.5-24.6c3.7-7,8.8-13.2,15.4-18c6.6-5.1,14.7-8.5,23.9-10.7c9.2-2.6,19.5-3.7,30.9-3.7c14.3,0,26.1,1.5,35.7,4.8
		c9.6,3.3,17.3,7.7,23.2,12.9c5.9,5.1,10.3,11.8,12.9,18.8c2.9,7,4.8,14.3,5.5,22.1l-38.6,4.8c-1.8-10.7-5.9-18.4-11.8-23.2
		s-14.3-7-26.1-7c-7,0-12.5,0.7-17.3,1.8c-4.4,1.1-8.1,2.6-10.7,4.8c-2.6,1.5-4.4,4-5.9,6.6c-1.1,2.6-1.5,5.1-1.5,8.1
		c0,7.4,2.2,12.9,6.3,16.5c4,3.7,11,6.6,21,8.5l27.2,5.5c21.3,4,36.8,11,46.7,20.2c9.9,9.2,14.7,23.2,14.7,40.5
		c0,8.1-1.5,16.2-4.8,23.5c-3.3,7.4-8.1,13.6-14.3,18.8c-6.3,5.5-14.3,9.6-23.5,12.5c-9.2,2.9-20.6,4.4-33.5,4.4
		c-26.8,0-47.1-5.5-61.4-17.3c-14.3-11.4-21.7-28.3-22.8-51.5L2568.3,519.1z"/>
</g>
</svg>
