<?xml version="1.0" encoding="utf-8"?>
<!-- Generator: Adobe Illustrator 27.5.0, SVG Export Plug-In . SVG Version: 6.00 Build 0)  -->
<svg version="1.1" id="Layer_1" xmlns="http://www.w3.org/2000/svg" xmlns:xlink="http://www.w3.org/1999/xlink" x="0px" y="0px"
	 viewBox="0 0 1000 1000" style="enable-background:new 0 0 1000 1000;" xml:space="preserve">
<style type="text/css">
	.st0{fill-rule:evenodd;clip-rule:evenodd;fill:#F7DF1E;}
	.st1{fill-rule:evenodd;clip-rule:evenodd;fill:#323232;}
</style>
<symbol  id="A" viewBox="-40 -40 80 80">
	<g>
		<path class="st0" d="M-40-40h80v80h-80V-40z"/>
		<path class="st1" d="M-4,23V-3h7v26c0,10-14,16-22,4l6-4C-10,29-4,27-4,23z M26,6c-4-5.5-9-3-9,0.5C17,12,33.5,11,33.5,23
			c-0.5,14-20,13.5-26,3l6-3.5C18,29.5,26,27,26,23c-0.5-7-16-3.5-16-16.5C9.5-3.5,24.5-9,31.5,2.5L26,6"/>
	</g>
</symbol>
<use xlink:href="#A"  width="80" height="80" x="-40" y="-40" transform="matrix(12.7441 0 0 12.5 502.3886 500)" style="overflow:visible;"/>
</svg>
