<?xml version="1.0" encoding="utf-8"?>
<!-- Generator: Adobe Illustrator 27.5.0, SVG Export Plug-In . SVG Version: 6.00 Build 0)  -->
<svg version="1.1"
	 id="svg3476" xmlns:dc="http://purl.org/dc/elements/1.1/" xmlns:cc="http://creativecommons.org/ns#" xmlns:sodipodi="http://sodipodi.sourceforge.net/DTD/sodipodi-0.dtd" xmlns:inkscape="http://www.inkscape.org/namespaces/inkscape" xmlns:svg="http://www.w3.org/2000/svg" xmlns:rdf="http://www.w3.org/1999/02/22-rdf-syntax-ns#" inkscape:version="0.92.4 (5da689c313, 2019-01-14)" sodipodi:docname="w3_css-icon.svg"
	 xmlns="http://www.w3.org/2000/svg" xmlns:xlink="http://www.w3.org/1999/xlink" x="0px" y="0px" viewBox="0 0 1000 1000"
	 style="enable-background:new 0 0 1000 1000;" xml:space="preserve">
<style type="text/css">
	.st0{fill:#264DE4;}
	.st1{fill:#2965F1;}
	.st2{fill:#EBEBEB;}
	.st3{fill:#FFFFFF;}
</style>
<sodipodi:namedview  bordercolor="#666666" borderopacity="1.0" fit-margin-bottom="0" fit-margin-left="0" fit-margin-right="0" fit-margin-top="0" id="base" inkscape:current-layer="layer1" inkscape:cx="27.142857" inkscape:cy="28.571429" inkscape:document-units="px" inkscape:pageopacity="0.0" inkscape:pageshadow="2" inkscape:window-height="1016" inkscape:window-maximized="1" inkscape:window-width="1850" inkscape:window-x="70" inkscape:window-y="27" inkscape:zoom="4.8766667" pagecolor="#ffffff" showgrid="false" units="px">
	</sodipodi:namedview>
<g id="layer1" transform="translate(-193.633,-739.48031)" inkscape:groupmode="layer" inkscape:label="Calque 1">
	<polygon id="polygon2989" class="st0" points="1049.6,837.4 984.1,1569.9 690.2,1651.4 397.1,1570.1 331.7,837.4 	"/>
	<polygon id="polygon2991" class="st1" points="690.7,1589.2 928.2,1523.3 984.1,897.3 690.7,897.3 	"/>
	<polygon id="polygon2993" class="st2" points="690.7,1169 481.5,1169 489.6,1258.9 690.7,1258.9 	"/>
	<polygon id="polygon2995" class="st2" points="690.7,987.2 690.3,987.2 465.3,987.2 473.5,1077 690.7,1077 	"/>
	<polygon id="polygon2997" class="st2" points="493.6,1303.8 506.1,1444.9 690.2,1496 690.7,1495.9 690.7,1402.4 690.2,1402.5 
		590.2,1375.5 583.8,1303.8 535.2,1303.8 	"/>
	<polygon id="polygon3005" class="st3" points="801,1258.9 790.5,1375.4 690.3,1402.5 690.3,1496 874.5,1444.9 875.9,1429.8 
		897,1193.2 899.2,1169 915.4,987.2 690.3,987.2 690.3,1077 816.9,1077 808.8,1169 690.3,1169 690.3,1258.9 	"/>
</g>
</svg>
