<?xml version="1.0" encoding="utf-8"?>
<!-- Generator: Adobe Illustrator 27.5.0, SVG Export Plug-In . SVG Version: 6.00 Build 0)  -->
<svg version="1.1" id="Layer_1" xmlns="http://www.w3.org/2000/svg" xmlns:xlink="http://www.w3.org/1999/xlink" x="0px" y="0px"
	 viewBox="0 0 1000 1000" style="enable-background:new 0 0 1000 1000;" xml:space="preserve">
<style type="text/css">
	.st0{display:none;fill:#FFFFFF;}
	.st1{fill:#FFFFFF;}
	.st2{fill:#DE4C36;}
</style>
<rect class="st0" width="1000" height="1000"/>
<polyline class="st1" points="205.3,329.9 459,76.3 782.9,487.1 740.8,604.6 566.6,774.4 470.1,774.4 378.1,710.1 439.1,554.7 
	447.9,413.8 412.5,304 341.4,243 205.3,329.9 205.3,329.9 "/>
<path class="st2" d="M924.7,461.7L539.3,76.3c-22.2-22.2-58.1-22.2-80.3,0l-80,80l101.5,101.5c23.6-7.9,50.6-2.6,69.4,16.2
	c18.9,19,24.2,46.2,16,69.8l97.9,97.9c23.7-8.2,51-2.9,69.8,16.1c26.4,26.4,26.4,69.2,0,95.7c-26.5,26.5-69.3,26.5-95.7,0
	c-19.9-19.9-24.8-49.1-14.7-73.6L532,388.7v240.1c6.6,3.3,12.7,7.6,17.9,12.8c26.4,26.4,26.4,69.2,0,95.7
	c-26.5,26.4-69.3,26.4-95.7,0c-26.4-26.5-26.4-69.3,0-95.7c6.3-6.3,13.9-11.4,22.2-14.8V384.5c-8.3-3.4-15.8-8.4-22.2-14.8
	c-20-20-24.8-49.3-14.6-73.9L339.6,195.7L75.3,459.8c-22.2,22.2-22.2,58.3,0,80.4l385.4,385.4c22.2,22.2,58.1,22.2,80.4,0L924.8,542
	C946.9,519.9,946.9,483.9,924.7,461.7"/>
</svg>
