<svg xmlns="http://www.w3.org/2000/svg" version="1.1" xmlns:xlink="http://www.w3.org/1999/xlink" xmlns:svgjs="http://svgjs.com/svgjs" width="1000" height="1000"><g transform="matrix(23.91200382592061,0,0,23.91200382592061,102.58247148528574,85.65652158347689)"><svg xmlns="http://www.w3.org/2000/svg" version="1.1" xmlns:xlink="http://www.w3.org/1999/xlink" xmlns:svgjs="http://svgjs.com/svgjs" width="32.232" height="41.82"><svg id="a" xmlns="http://www.w3.org/2000/svg" width="32.232" height="41.82" viewBox="0 0 32.232 41.82"><path d="m2.448,6.123h5.847v22.098H2.448V6.123Z"></path><path d="m13.021,17.341c0-7.411,5.1-11.627,10.675-11.627,2.924,0,5.304,1.292,6.868,2.924l-3.061,3.536c-1.088-.952-2.176-1.428-3.671-1.428-2.584,0-4.828,2.379-4.828,6.391,0,4.148,1.904,6.46,4.76,6.46,1.7,0,3.06-.681,4.012-1.7l3.06,3.468c-1.972,2.243-4.487,3.264-7.275,3.264-5.644,0-10.539-3.74-10.539-11.288Z"></path><circle cx="23.569" cy="17.239" r="2.286" fill="#231f20"></circle></svg></svg></g></svg>