<?xml version="1.0" encoding="utf-8"?>
<!-- Generator: Adobe Illustrator 27.5.0, SVG Export Plug-In . SVG Version: 6.00 Build 0)  -->
<svg version="1.1" id="Layer_1" xmlns="http://www.w3.org/2000/svg" xmlns:xlink="http://www.w3.org/1999/xlink" x="0px" y="0px"
	 viewBox="0 0 1000 1000" style="enable-background:new 0 0 1000 1000;" xml:space="preserve">
<style type="text/css">
	.st0{fill-rule:evenodd;clip-rule:evenodd;fill:#00D8FF;}
</style>
<symbol  id="A" viewBox="-454.8 -406 909.7 810">
	<g>
		<g>
			<circle class="st0" cx="-0.8" cy="-1.6" r="81.5"/>
			<path class="st0" d="M-454.8-1C-454.8-104.5-252-187.8,0-187.8S454.9-104.5,454.9-1S252,185.8,0,185.8S-454.8,102.5-454.8-1z
				 M-414.2-1c0-81,184.7-146.2,414.2-146.2S414.2-82,414.2-1S229.5,145.2,0,145.2S-414.2,80-414.2-1z"/>
			<path class="st0" d="M-227.4-394.9c89.6-51.7,263.2,82.3,389.2,300.5s155.3,435.6,65.6,487.3S-35.8,310.6-161.8,92.4
				S-317-343.2-227.4-394.9z M-207.1-359.7c70.1-40.5,219,86.9,333.7,285.6s150.6,391.3,80.5,431.8s-219-86.9-333.7-285.6
				S-277.2-319.2-207.1-359.7z"/>
			<path class="st0" d="M227.5-394.9c89.6,51.7,60.4,269.1-65.6,487.3s-299.6,352.3-389.2,300.5s-60.4-269.1,65.6-487.3
				S137.8-446.6,227.5-394.9z M207.1-359.7c70.1,40.5,34.2,233.1-80.5,431.8S-137,398.3-207.1,357.8s-34.2-233.1,80.5-431.8
				S137-400.2,207.1-359.7z"/>
		</g>
	</g>
</symbol>
<use xlink:href="#A"  width="909.7" height="810" id="XMLID_00000036240745055633978960000014968115592150764449_" x="-454.8" y="-406" transform="matrix(1.0401 0 0 1.0401 500 501)" style="overflow:visible;"/>
</svg>
