<?xml version="1.0" encoding="utf-8"?>
<!-- Generator: Adobe Illustrator 27.5.0, SVG Export Plug-In . SVG Version: 6.00 Build 0)  -->
<svg version="1.1" xmlns="http://www.w3.org/2000/svg" xmlns:xlink="http://www.w3.org/1999/xlink" x="0px" y="0px"
	 viewBox="0 0 1000 1000" style="enable-background:new 0 0 1000 1000;" xml:space="preserve">
<style type="text/css">
	.st0{fill:#FFFFFF;}
	.st1{clip-path:url(#SVGID_00000047768716138170911740000017629632507088480414_);fill:#DA1F26;}
</style>
<g id="Layer_2">
	<rect class="st0" width="1000" height="1000"/>
</g>
<g id="Layer_1">
	<g id="Layer_3">
		<path class="st0" d="M594,467.8c-19.9-26.6-41-52.3-65.3-74.9c-13.3-12.4-27.6-23.9-42.4-34.5c-11.9-8.6-24.3-16.3-37.4-23
			c-9.6-4.9-19.4-9-29.4-13.1c-6.7-2.7-13.6-5.2-20.6-7.3c-15.8-4.7-32.1-7.2-48.5-8.8c-13-1.3-26.1-1.3-39.1,0
			c-16.3,1.6-32.7,4-48.4,8.8c-9.5,2.9-18.5,6.7-27.7,10.6c-5.8,2.5-11.4,5.3-16.9,8.4c-5.4,3.1-10.7,6.6-15.7,10.3
			c-7.7,5.8-15.4,11.7-22.3,18.4c-7,6.8-12.8,14.5-18.7,22.2c-4.3,5.6-8.2,11.6-11.6,17.8c-5.3,9.7-9.6,19.9-13.5,30.2
			c-2.7,7.3-4.9,14.7-6.7,22.3c-1.8,7.5-3.2,15.1-4.2,22.8c-1.5,11.2-3,22.4-3.7,33.7c-1,15.9-1.1,32-0.1,47.9
			c0.5,7.6,1.5,15.1,2.6,22.7c0.6,4.3,1.4,8.5,2.5,12.7c1.9,7.3,5.1,14.2,8.1,21c1.6,3.7,3.5,7.2,5.7,10.6
			c6.1,9.6,13.4,18.5,20.7,27.2c4.9,5.8,10,11.6,15,17.3c9.9,11.2,20.1,22.2,31.1,32.3c8,7.3,16.6,14,25.3,20.5
			c5.8,4.4,11.9,8.4,18.3,12c9.3,5.2,19.2,9.5,29.3,13.1c7.7,2.8,15.6,4.8,23.7,6.1c12,1.9,24.1,3.4,36.3,3.5
			c8.6,0.1,17.3-0.3,25.9-1c8.4-0.7,16.7-1.5,25.1-2.4c5.8,0.2,11.2-1,16.1-3.6c5.2-1.7,9.7-4.6,13.5-8.7c4.1-3.8,7-8.3,8.7-13.5
			c2.6-5,3.8-10.4,3.6-16.1c-0.5-3.7-1-7.4-1.5-11.1c-2-7.1-5.6-13.3-10.8-18.5c-2.8-2.2-5.7-4.4-8.5-6.5
			c-6.5-3.8-13.6-5.7-21.2-5.7c-22.2,2.4-44.6,4.7-66.9,2.6c-7.6-1.4-15.1-3.3-22.3-6c-8.8-4.2-17.1-9.3-24.9-15
			c-18-14.6-33.5-32-48.7-49.4c-3.8-4.3-7.6-8.7-11.2-13.1c-3-4.1-5.7-8.4-8-12.9c-1.3-4-2.3-8.1-3.1-12.2
			c-1.1-11.8-1.1-23.8-0.9-35.7c0.2-11.4,0.8-22.8,2.1-34.2c2.2-14.1,5.6-27.9,10.7-41.2c3.7-7.9,8-15.5,13-22.6
			c5.2-6.2,10.9-11.8,17.1-17c7.9-5.7,16.4-10.5,25.3-14.6c11.7-4.5,23.8-7.7,36.2-9.7c14-1.5,28.2-1.5,42.2,0
			c14.8,2.4,29.3,6.6,43.2,12.1c18.8,8.5,36.5,19.2,53.1,31.6c21.5,17.2,40.9,36.9,58.7,57.9c4.2,5,8.3,10,12.3,15.1
			c0.8,1.1,1.6,2.2,2.5,3.3c2.6,4.9,6.2,8.8,10.8,11.8c4,3.7,8.8,6.2,14.3,7.5c5.6,1.7,11.1,2,16.7,0.8c5.6-0.2,10.8-1.9,15.6-5
			c2.8-2.2,5.7-4.4,8.5-6.5c5.2-5.2,8.8-11.4,10.8-18.5c0.5-3.7,1-7.4,1.5-11.1C599.7,481.4,597.8,474.3,594,467.8z"/>
		<path class="st0" d="M881.2,428.8c-0.3-9.3-1.5-18.5-2.9-27.8c-0.8-5.3-1.9-10.6-3.4-15.8c-3.9-13.2-9.6-26.1-16.4-38
			c-6.8-11.9-15.2-22.7-23.6-33.5c-6-7.6-12.3-15-19-22c-15.5-16.2-33-30.7-51.5-43.4c-18.5-12.7-38.7-22.5-59.7-30.3
			c-21.8-8.1-45.1-12.2-68.3-13.5c-11-0.6-22-0.3-32.9,0.8c-14.3,1.4-28.7,3.5-42.8,6.7c-21.7,4.9-42.9,12.3-63.4,20.9
			c-13,5.5-26,11.1-38.7,17.3c-4.9,2.6-8.8,6.2-11.8,10.8c-3.7,4-6.2,8.8-7.5,14.3c-1.7,5.6-2,11.1-0.8,16.7
			c0.2,5.6,1.9,10.8,5,15.6c5.8,8.9,14.4,16.8,25.1,19.3c3.7,0.5,7.4,1,11.1,1.5c7.6,0,14.6-1.9,21.2-5.7
			c7.8-3.8,15.6-7.4,23.5-10.8c24.6-10.1,50-18.2,76.3-22.3c15.1-1.7,30.3-1.9,45.4-0.3c13.6,2.3,26.9,6,39.7,11
			c15.4,7,30.1,15.8,43.7,25.9c16.2,13.1,30.9,28,43.9,44.2c6.9,9.3,13.2,19.2,18.1,29.6c2.3,6.2,4,12.6,5.3,19.1
			c1.6,17.3,0.1,34.8-1.1,52.2c-1,14.3-2.2,28.6-4,42.8c-3.1,21.4-7.8,42.6-15.6,62.8c-4.3,9.4-9.4,18.5-15.4,26.9
			c-5.4,6.4-11.2,12.2-17.6,17.6c-9.5,6.8-19.7,12.5-30.4,17.3c-27,10.6-55.9,16.9-84.5,21.1c-18.9,2.3-38,3.1-56.9,1.1
			c-10.8-1.8-21.4-4.7-31.6-8.6c-14.5-6.7-28-15.2-40.8-24.8c-17.2-13.7-33.1-28.9-49-43.9c-20.1-19-40.2-38-60.2-57
			c-8.9-8.4-18.4-16.5-26.5-25.8c-0.1-0.2-0.3-0.5-0.4-0.7c0.2-3,0-6.1-0.7-9c-0.2-5.6-1.9-10.8-5-15.6c-2.6-4.9-6.2-8.8-10.8-11.8
			c-4-3.7-8.8-6.2-14.3-7.5c-10.7-2.4-22.8-1.9-32.3,4.2c-8.9,5.7-17,14.4-19.3,25.1c-1.2,5.6-2.2,11.3-2.2,17.1
			c0,1.2,0.1,2.3,0.2,3.5c0.6,4.7,0.9,9.6,2.1,14.2c1.3,5.3,3.8,10.3,6,15.2c1,2.2,2.1,4.4,3.4,6.5c7.2,11.4,16.4,21.2,26.2,30.4
			c17.6,16.6,35.2,33.3,52.7,49.9c16.1,15.2,32,30.7,48.5,45.5c17.5,15.8,35.9,30.9,55.7,43.6c8.5,5.4,17.3,10.2,26.4,14.3
			c12.6,5.6,25.3,10.8,38.8,13.9c25.2,5.9,51.4,7.4,77.1,5.3c24.9-2.1,49.9-6.2,74.3-11.8c22.6-5.2,44.3-12.6,65.4-22.1
			c40.3-18.2,74.3-50.6,93-90.8c9.3-19.9,16.3-40.4,20.7-61.9c4.5-21.9,7.2-44.3,9.2-66.5C879.8,470.9,881.9,449.7,881.2,428.8z"/>
	</g>
	<g>
		<g>
			<defs>
				<rect id="SVGID_1_" x="65.7" y="155.7" width="869.8" height="641.5"/>
			</defs>
			<clipPath id="SVGID_00000178892497763061314710000013453275310733706646_">
				<use xlink:href="#SVGID_1_"  style="overflow:visible;"/>
			</clipPath>
			<path style="clip-path:url(#SVGID_00000178892497763061314710000013453275310733706646_);fill:#DA1F26;" d="M935.5,462.2v28.6
				c-0.3,1.6-0.6,3.1-0.8,4.6c-1.5,12.5-2.4,25-4.5,37.4c-6.7,40.2-21.2,77.5-42.6,112.1c-32.6,52.4-76.7,92.4-132.1,119.7
				c-32,15.8-66.5,26-101.9,30.1c-7.9,0.9-15.7,1.7-23.6,2.6H324.4c-1.5-0.3-3.1-0.7-4.6-0.8c-30.8-1.9-60.5-9-88.7-21.3
				c-61.5-26.9-107.4-70.6-137.4-130.6C80.4,618,71.8,589.4,68.3,560c-0.9-7.2-1.7-14.3-2.6-21.4v-27.8c0.3-1.5,0.7-3.1,0.8-4.6
				c1.6-26.7,7.1-52.6,16.7-77.6c25.9-67,71.2-116.7,135.5-148.9c33.4-16.7,68.9-25.5,106.1-27.4c18.2-0.9,36.4,0.1,54.5,2.5
				c1.6,0.2,4-0.5,5.1-1.7c26-26.6,55.7-48.2,89.1-64.5c32.4-15.9,66.5-26.1,102.4-30.2c8.5-1,16.9-1.8,25.4-2.6h26.1
				c1.7,0.3,3.4,0.6,5.1,0.8c12.9,1.5,25.9,2.4,38.7,4.6c39.9,6.7,77,21,111.4,42.3c52.7,32.6,92.9,76.8,120.3,132.4
				c15.9,32,26.1,66.5,30.1,102C933.9,445.8,934.7,454,935.5,462.2 M449.2,276.8c0.5,0.7,0.7,1,0.9,1.1c17.9,8.8,35,19.2,51.1,30.9
				c1,0.7,3.5,0.4,4.8-0.3c44.3-28.1,92.3-37.8,143.9-28.6c50.6,9,91.7,34.2,123.1,74.6c35.6,45.6,49.2,97.3,39.3,154.7
				c-6.6,38.5-22,73-48.2,101.9c-47.8,52.7-107.7,74.6-178.2,65.3c-43.4-5.7-80.9-24.4-111.9-55.7c-39.8-40.2-79.9-80.1-119.8-120.2
				c-5.3-5.3-11.2-9.6-18.9-10.6c-13.4-1.6-25.5,5-31.3,17c-5.1,10.7-4.5,22.8,6.7,33.8c44.5,43.7,88.6,87.7,133,131.5
				c7.6,7.5,15.8,14.5,24.4,20.8c32.5,23.6,69.1,36.6,108.7,41.9c31.1,4.1,62,3.2,92.6-3.7c58.4-13.1,106.9-42.9,144.9-89
				c31.5-38,50.5-81.7,57.2-130.8c3.9-28,3-56.4-2.4-84.1c-8.8-45.3-28-85.9-58.7-120.4c-58.6-65.8-132.4-95.2-220.1-88.7
				c-33.7,2.5-65.7,12.4-95.7,28.1C478.5,255,463.2,265.1,449.2,276.8 M427.7,736.3c-1.2-1.1-2.4-2.2-3.6-3.4
				c-18.2-17.2-36.5-34.2-54.5-51.6c-3.5-3.4-6.7-5-11.6-4.9c-18.2,0.5-36.4,0.5-54.4-3.5c-89.2-20.2-141-117.1-108.1-202.5
				c26-67.3,97.7-108.3,168.5-95.6c31.7,5.7,59.6,19.1,82.4,42.7c27.9,28.8,56.6,56.7,84.8,85.2c6.4,6.5,13.8,9.4,22.7,8.2
				c11.5-1.6,20.6-7.1,24.8-18.4c4.1-11.1,2.1-21.6-6.3-30.1c-29.6-30-58.5-60.7-89.2-89.3c-59.7-55.7-130.1-72.2-207.9-48.5
				c-104.7,31.8-166,139.9-142,246.6c21.8,97.2,106.8,165.4,206.3,165.5c27.8,0,55.6,0,83.3,0C424.2,736.5,425.6,736.4,427.7,736.3"
				/>
		</g>
	</g>
</g>
</svg>
