<?xml version="1.0" encoding="utf-8"?>
<!-- Generator: Adobe Illustrator 27.5.0, SVG Export Plug-In . SVG Version: 6.00 Build 0)  -->
<svg version="1.1" id="Layer_1" xmlns="http://www.w3.org/2000/svg" xmlns:xlink="http://www.w3.org/1999/xlink" x="0px" y="0px"
	 viewBox="0 0 1000 1000" style="enable-background:new 0 0 1000 1000;" xml:space="preserve">
<style type="text/css">
	.st0{fill-rule:evenodd;clip-rule:evenodd;fill:#E44D26;}
	.st1{fill-rule:evenodd;clip-rule:evenodd;fill:#EBEBEB;}
	.st2{fill-rule:evenodd;clip-rule:evenodd;fill:#F16529;}
	.st3{fill-rule:evenodd;clip-rule:evenodd;fill:#FFFFFF;}
	.st4{fill:none;}
</style>
<symbol  id="A" viewBox="-30 -25 60 65">
	<g>
		<path class="st0" d="M30-25h-60l5,57.5L0,40l25-7.5L30-25"/>
		<path class="st1" d="M-7.6,25.2l-8.2-2.5l-0.7-7.7l-0.2-2.5h8l0.4,5L0,20v7.5L-7.6,25.2z M0-7.5h-10.5L-9.8,0H0v7.5h-9.2h-8
			L-17.8,0l-0.7-7.5l-0.7-7.5h8H0V-7.5z"/>
		<path class="st2" d="M21.7,12.5l0.4-5L22.8,0l0.7-7.5l0.7-7.5l0.4-5H0v55l15.2-4.6l5.1-1.5l0.7-7.7l0.7-7.7V12.5z"/>
		<path class="st3" d="M0-7.5h10.5h8l0.7-7.5h-8H0V-7.5z M9.2,7.5H0V0h9.8h8l-0.7,7.5l-0.4,5L16.5,15l-0.7,7.7l-8.2,2.5L0,27.5V20
			l8.3-2.5l0.4-5L9.2,7.5z"/>
	</g>
</symbol>
<rect x="100.2" y="-107.9" class="st4" width="795.1" height="1072.3"/>
<use xlink:href="#A"  width="60" height="65" id="XMLID_00000173848605075519130240000013353146697834694071_" x="-30" y="-25" transform="matrix(13.2509 0 0 13.4039 497.7061 409.2088)" style="overflow:visible;"/>
</svg>
