<?xml version="1.0" encoding="utf-8"?>
<!-- Generator: Adobe Illustrator 27.5.0, SVG Export Plug-In . SVG Version: 6.00 Build 0)  -->
<svg version="1.1" id="Layer_1" xmlns="http://www.w3.org/2000/svg" xmlns:xlink="http://www.w3.org/1999/xlink" x="0px" y="0px"
	 viewBox="0 0 563.5 622.1" style="enable-background:new 0 0 563.5 622.1;" xml:space="preserve">
<style type="text/css">
	.st0{fill-rule:evenodd;clip-rule:evenodd;fill:#E44D26;}
	.st1{fill-rule:evenodd;clip-rule:evenodd;}
	.st2{fill-rule:evenodd;clip-rule:evenodd;fill:#EBEBEB;}
	.st3{fill-rule:evenodd;clip-rule:evenodd;fill:#F16529;}
	.st4{fill-rule:evenodd;clip-rule:evenodd;fill:#FFFFFF;}
</style>
<symbol  id="A" viewBox="-30 -40 60 80">
	<g>
		<path class="st0" d="M30-25h-60l5,57.5L0,40l25-7.5L30-25"/>
		<path class="st1" d="M-23-40v11h3v-4h4v4h3v-11h-3v4h-4v-4H-23z M1-40v11h3v-6l2.5,4L9-35v6h3v-11H9l-2.5,3.5L4-40H1z M14-40v11h9
			v-3h-6v-8H14z"/>
		<path class="st2" d="M-7.6,25.2l-8.2-2.5l-0.7-7.7l-0.2-2.5h8l0.4,5L0,20v7.5L-7.6,25.2z M0-7.5h-10.5L-9.8,0H0v7.5h-9.2h-8
			L-17.8,0l-0.7-7.5l-0.7-7.5h8H0V-7.5z"/>
		<path class="st3" d="M21.7,12.5l0.4-5L22.8,0l0.7-7.5l0.7-7.5l0.4-5H0v55l15.2-4.6l5.1-1.5l0.7-7.7l0.7-7.7L21.7,12.5z"/>
		<path class="st1" d="M-11-40v3h3.5v8h3v-8H-1v-3H-11z"/>
		<path class="st4" d="M0-7.5h10.5h8l0.7-7.5h-8H0V-7.5z M9.2,7.5H0V0h9.8h8l-0.7,7.5l-0.4,5L16.5,15l-0.7,7.7l-8.2,2.5L0,27.5V20
			l8.3-2.5l0.4-5L9.2,7.5z"/>
	</g>
</symbol>
<use xlink:href="#A"  width="60" height="80" x="-30" y="-40" transform="matrix(9.3042 0 0 9.3042 284.3252 243.3765)" style="overflow:visible;"/>
</svg>
