<?xml version="1.0" encoding="utf-8"?>
<!-- Generator: Adobe Illustrator 27.5.0, SVG Export Plug-In . SVG Version: 6.00 Build 0)  -->
<svg version="1.1" id="Layer_1" xmlns="http://www.w3.org/2000/svg" xmlns:xlink="http://www.w3.org/1999/xlink" x="0px" y="0px"
	 viewBox="0 0 800 800" style="enable-background:new 0 0 800 800;" xml:space="preserve">
<style type="text/css">
	.st0{fill:#FFFFFF;}
	.st1{fill:#DE4C36;}
</style>
<polyline class="st0" points="132.9,244.9 362.8,15.1 656.4,387.4 618.2,493.9 460.4,647.8 372.9,647.8 289.5,589.5 344.8,448.7 
	352.8,321 320.7,221.5 256.3,166.2 132.9,244.9 132.9,244.9 "/>
<path class="st1" d="M784.9,364.4L435.6,15.1C415.5-5,382.9-5,362.8,15.1l-72.5,72.5l92,92c21.4-7.2,45.9-2.4,62.9,14.7
	c17.1,17.2,21.9,41.9,14.5,63.3l88.7,88.7c21.5-7.4,46.2-2.6,63.3,14.6c23.9,23.9,23.9,62.7,0,86.7c-24,24-62.8,24-86.7,0
	c-18-18-22.5-44.5-13.3-66.7L429,298.2l0,217.6c6,3,11.5,6.9,16.2,11.6c23.9,23.9,23.9,62.7,0,86.7c-24,23.9-62.8,23.9-86.7,0
	c-23.9-24-23.9-62.8,0-86.7c5.7-5.7,12.6-10.3,20.1-13.4V294.4c-7.5-3.1-14.3-7.6-20.1-13.4c-18.1-18.1-22.5-44.7-13.2-67
	l-90.7-90.7L15.1,362.7c-20.1,20.1-20.1,52.8,0,72.9l349.3,349.3c20.1,20.1,52.7,20.1,72.9,0l347.7-347.7
	C805,417.1,805,384.5,784.9,364.4"/>
</svg>
