<?xml version="1.0" encoding="utf-8"?>
<!-- Generator: Adobe Illustrator 27.5.0, SVG Export Plug-In . SVG Version: 6.00 Build 0)  -->
<svg version="1.1" id="Layer_1" xmlns="http://www.w3.org/2000/svg" xmlns:xlink="http://www.w3.org/1999/xlink" x="0px" y="0px"
	 viewBox="0 0 2500 1844" style="enable-background:new 0 0 2500 1844;" xml:space="preserve">
<style type="text/css">
	.st0{fill:#FFFFFF;}
	.st1{clip-path:url(#SVGID_00000067231523920197295410000015975362569921180300_);fill:#DA1F26;}
</style>
<g id="Layer_3">
	<path class="st0" d="M1518.3,897c-57.2-76.4-117.9-150.2-187.8-215.4c-38.3-35.7-79.3-68.6-121.8-99.3
		c-34.1-24.6-69.9-46.9-107.4-66.1c-27.5-14-55.9-26-84.4-37.7c-19.4-7.9-39.2-15-59.3-21c-45.3-13.6-92.4-20.8-139.4-25.4
		c-37.3-3.7-75-3.7-112.3-0.1c-46.9,4.5-93.9,11.6-139,25.4c-27.2,8.3-53.3,19.4-79.5,30.6c-16.6,7.2-32.9,15.2-48.6,24.2
		c-15.6,9-30.7,18.9-45,29.7c-22.2,16.7-44.2,33.5-64.1,53c-20,19.6-36.8,41.6-53.8,63.8c-12.4,16.2-23.5,33.2-33.3,51.1
		c-15.2,27.8-27.6,57.3-38.7,86.9c-7.8,20.9-14.2,42.3-19.4,64.1c-5.2,21.6-9.1,43.5-12.1,65.5c-4.4,32.3-8.6,64.5-10.6,97
		c-2.8,45.8-3.1,92.1-0.4,137.8c1.3,21.8,4.4,43.4,7.4,65.1c1.7,12.3,4,24.4,7.2,36.4c5.6,20.9,14.6,40.9,23.3,60.5
		c4.7,10.5,10.2,20.6,16.4,30.4c17.4,27.7,38.4,53.3,59.6,78.2c14.2,16.7,28.6,33.2,43.2,49.6c28.5,32.1,57.8,63.7,89.5,92.7
		c23,21,47.6,40.3,72.6,59c16.8,12.6,34.3,24.2,52.6,34.4c26.7,15,55.3,27.2,84.1,37.7c22,8.1,44.8,13.8,68,17.5
		c34.6,5.5,69.4,9.7,104.4,10c24.8,0.3,49.6-1,74.4-2.9c24.1-1.9,48.1-4.4,72.1-7c16.6,0.6,32.1-2.8,46.4-10.4
		c14.9-4.9,27.9-13.2,38.8-24.9c11.8-10.9,20.1-23.8,24.9-38.8c7.5-14.4,11-29.8,10.4-46.4c-1.4-10.7-2.9-21.4-4.3-32
		c-5.7-20.4-16.1-38.1-31-53.2c-8.1-6.3-16.3-12.6-24.4-18.8c-18.8-10.9-39.1-16.4-60.8-16.5c-63.8,6.9-128.3,13.6-192.4,7.5
		c-21.9-3.9-43.4-9.6-64.2-17.3c-25.3-12-49.1-26.6-71.7-43.1c-51.6-42.1-96.3-92-139.9-142.1c-10.8-12.5-21.7-24.9-32.2-37.7
		c-8.5-11.9-16.4-24.2-23-37.2c-3.8-11.5-6.7-23.3-8.9-35.2c-3.2-34-3.2-68.4-2.6-102.5c0.5-32.8,2.3-65.6,5.9-98.2
		c6.3-40.4,16.1-80.2,30.7-118.4c10.6-22.7,23-44.6,37.5-65c14.9-17.7,31.4-34,49.1-48.9c22.8-16.3,47.2-30.3,72.7-42
		c33.6-12.9,68.5-22.1,104-28c40.3-4.2,81.1-4.2,121.4,0c42.6,7,84.1,19,124.3,34.9c54.1,24.3,105,55.3,152.6,90.8
		c61.8,49.4,117.6,106,168.6,166.5c12.1,14.3,23.9,28.8,35.4,43.5c2.4,3.1,4.7,6.2,7.1,9.4c7.6,14,17.9,25.3,31,33.8
		c11.6,10.7,25.3,17.8,41,21.6c16,5,32,5.7,48.1,2.2c16-0.7,31-5.5,44.8-14.3c8.1-6.3,16.3-12.6,24.4-18.8
		c14.9-15,25.3-32.8,31-53.2c1.4-10.7,2.9-21.4,4.3-32C1534.7,936.1,1529.2,915.8,1518.3,897z"/>
	<path class="st0" d="M2343.9,785c-0.8-26.8-4.4-53.3-8.3-79.8c-2.2-15.3-5.4-30.4-9.8-45.3c-11.1-37.8-27.6-74.9-47.1-109.2
		c-19.6-34.2-43.7-65.3-67.9-96.3c-17.2-21.9-35.4-43-54.6-63.1c-44.6-46.7-94.9-88.3-148.1-124.8c-53.2-36.6-111.2-64.6-171.6-87.2
		c-62.7-23.3-129.7-35.2-196.4-38.9c-31.5-1.7-63.1-0.8-94.5,2.3c-41.2,4.1-82.5,10.1-123,19.3c-62.5,14.1-123.2,35.4-182.3,60.2
		c-37.5,15.7-74.7,31.9-111.3,49.6c-14,7.6-25.3,17.9-33.8,31c-10.7,11.6-17.8,25.3-21.6,41c-5,16-5.7,32-2.2,48.1
		c0.7,16,5.5,31,14.3,44.8c16.6,25.7,41.3,48.4,72,55.4c10.7,1.4,21.4,2.9,32,4.3c21.8-0.1,42-5.6,60.8-16.5
		c22.3-10.8,44.8-21.2,67.5-31c70.7-28.9,143.8-52.2,219.3-64.2c43.3-4.8,87-5.4,130.4-1c39.1,6.5,77.3,17.3,114.2,31.7
		c44.4,20.2,86.4,45.3,125.7,74.3c46.6,37.6,88.8,80.4,126.3,127c19.8,26.8,37.8,55.1,52.1,85.2c6.6,17.9,11.6,36.3,15.1,55
		c4.5,49.8,0.4,100.1-3.2,149.9c-2.9,41.1-6.4,82.1-11.4,123c-9,61.4-22.4,122.5-44.9,180.4c-12.4,27.1-27.1,53.1-44.4,77.4
		c-15.4,18.3-32.3,35.2-50.6,50.6c-27.3,19.5-56.7,35.8-87.3,49.6c-77.5,30.6-160.6,48.6-242.9,60.6c-54.3,6.5-109.1,8.9-163.5,3.3
		c-31.1-5.3-61.5-13.4-90.9-24.6c-41.7-19.2-80.6-43.8-117.3-71.2c-49.3-39.4-95.1-83-140.9-126.3
		c-57.7-54.6-115.4-109.2-173.1-163.8c-25.5-24.2-52.9-47.5-76.2-74.1c-0.4-0.6-0.8-1.3-1.2-1.9c0.6-8.7-0.1-17.4-2-26
		c-0.7-16-5.5-31-14.3-44.8c-7.6-14-17.9-25.3-31-33.8c-11.6-10.7-25.3-17.8-41-21.6c-30.8-7-65.5-5.5-92.9,12.1
		c-25.5,16.5-48.8,41.3-55.4,72c-3.4,16-6.3,32.6-6.2,49.1c0,3.4,0.3,6.7,0.7,10c1.6,13.5,2.7,27.5,6,40.8
		c3.7,15.2,11,29.7,17.2,43.8c2.8,6.4,6.1,12.6,9.8,18.6c20.7,32.9,47.2,61,75.2,87.5c50.5,47.8,101.1,95.6,151.6,143.5
		c46.3,43.8,92.1,88.2,139.4,130.9c50.2,45.3,103.1,88.8,160.2,125.2c24.3,15.5,49.6,29.4,76,41.1c36.3,16.1,72.7,30.9,111.4,39.9
		c72.3,16.9,147.7,21.2,221.6,15.2c71.7-5.9,143.5-17.8,213.6-33.8c65-14.9,127.2-36.1,188-63.5c115.9-52.2,213.5-145.4,267.2-261
		c26.6-57.2,46.8-116.2,59.5-177.9c13-63,20.6-127.2,26.3-191.2C2339.7,906,2345.8,845.2,2343.9,785z"/>
</g>
<g>
	<defs>
		<rect id="SVGID_1_" y="0.1" width="2500" height="1843.8"/>
	</defs>
	<clipPath id="SVGID_00000075158052240556093320000011623738100451174548_">
		<use xlink:href="#SVGID_1_"  style="overflow:visible;"/>
	</clipPath>
	<path style="clip-path:url(#SVGID_00000075158052240556093320000011623738100451174548_);fill:#DA1F26;" d="M2500,880.9v82.3
		c-0.8,4.5-1.8,8.8-2.3,13.3c-4.3,35.8-7,71.8-12.9,107.4c-19.2,115.5-60.8,222.8-122.5,322.1c-93.7,150.7-220.5,265.6-379.7,344.1
		c-91.9,45.5-191,74.8-292.9,86.4c-22.6,2.6-45.2,5-67.9,7.4H743.5c-4.4-0.8-8.8-2.1-13.3-2.4c-88.6-5.6-173.8-25.8-255-61.3
		c-176.8-77.4-308.6-202.8-394.9-375.3c-38.1-76.1-62.8-158.3-72.9-242.8c-2.5-20.6-4.9-41.1-7.4-61.6v-79.9
		c0.8-4.4,2.1-8.8,2.4-13.3C7,930.5,22.7,856,50.5,784.4C125,591.8,255.1,448.9,439.8,356.4c95.9-48,198-73.2,304.9-78.8
		c52.3-2.7,104.6,0.2,156.6,7.2c4.7,0.6,11.5-1.5,14.8-4.8c74.8-76.4,160-138.5,256-185.5c93.1-45.6,191.2-75,294.4-86.8
		c24.3-2.8,48.6-5.1,72.9-7.6h74.9c4.9,0.8,9.8,1.6,14.7,2.2c37.1,4.3,74.4,7,111.2,13.2c114.7,19.2,221.4,60.4,320.1,121.5
		c151.4,93.7,266.9,220.6,345.7,380.4c45.6,92,74.9,191.1,86.5,293.1C2495.2,834,2497.5,857.4,2500,880.9 M1102.2,348.3
		c1.5,2,1.9,2.9,2.5,3.2c51.4,25.3,100.6,55.1,146.9,88.8c2.9,2.1,10.2,1.2,13.7-1c127.3-80.7,265.3-108.5,413.6-82.2
		c145.3,25.8,263.5,98.4,353.8,214.3c102.3,131.2,141.3,279.6,113,444.7c-18.9,110.6-63.3,209.9-138.6,293
		c-137.4,151.6-309.6,214.3-512.2,187.7c-124.7-16.3-232.4-70.1-321.5-160.2c-114.4-115.5-229.5-230.3-344.2-345.5
		C814,975.8,797,963.4,775,960.7c-38.5-4.7-73.4,14.5-90,49c-14.8,30.8-12.9,65.6,19.2,97.2c127.9,125.5,254.6,252.2,382.4,377.9
		c21.9,21.6,45.3,41.6,70.1,59.7c93.3,67.8,198.5,105.2,312.4,120.3c89.4,11.8,178.1,9.3,266.2-10.5
		c167.9-37.7,307.1-123.4,416.6-255.7c90.5-109.3,145.2-234.9,164.3-375.9c11.1-80.4,8.7-162.1-6.8-241.7
		c-25.4-130.2-80.5-246.8-168.8-346c-168.5-189.2-380.4-273.6-632.6-254.8c-97,7.2-188.8,35.7-275.1,80.9
		C1186.3,285.4,1142.5,314.6,1102.2,348.3 M1040.5,1668.8c-3.5-3.2-6.9-6.4-10.4-9.7c-52.3-49.4-104.9-98.4-156.5-148.4
		c-10-9.7-19.2-14.4-33.4-14.1c-52.3,1.3-104.7,1.5-156.3-10.1c-256.4-58-405.2-336.7-310.8-582C447.7,711.1,654,593.3,857.5,629.6
		c91.2,16.3,171.2,54.9,236.9,122.6c80.1,82.7,162.6,163.1,243.6,244.9c18.4,18.6,39.6,27.1,65.1,23.5c33-4.7,59.3-20.4,71.2-52.8
		c11.7-31.9,6-62-18.1-86.4c-85-86.1-168-174.4-256.4-256.8c-171.5-160-373.8-207.6-597.5-139.5c-300.9,91.4-477,402.1-408.2,708.7
		c62.7,279.3,307,475.4,592.8,475.6c79.8,0.1,159.7,0,239.5,0C1030.4,1669.4,1034.4,1669.1,1040.5,1668.8"/>
</g>
</svg>
