<?xml version="1.0" encoding="utf-8"?>
<!-- Generator: Adobe Illustrator 27.5.0, SVG Export Plug-In . SVG Version: 6.00 Build 0)  -->
<svg version="1.1"
	 id="svg3476" xmlns:dc="http://purl.org/dc/elements/1.1/" xmlns:cc="http://creativecommons.org/ns#" xmlns:sodipodi="http://sodipodi.sourceforge.net/DTD/sodipodi-0.dtd" xmlns:inkscape="http://www.inkscape.org/namespaces/inkscape" xmlns:svg="http://www.w3.org/2000/svg" xmlns:rdf="http://www.w3.org/1999/02/22-rdf-syntax-ns#" inkscape:version="0.92.4 (5da689c313, 2019-01-14)" sodipodi:docname="w3_css-icon.svg"
	 xmlns="http://www.w3.org/2000/svg" xmlns:xlink="http://www.w3.org/1999/xlink" x="0px" y="0px" viewBox="0 0 798.8 917.4"
	 style="enable-background:new 0 0 798.8 917.4;" xml:space="preserve">
<style type="text/css">
	.st0{fill:#264DE4;}
	.st1{fill:#2965F1;}
	.st2{fill:#EBEBEB;}
	.st3{fill:#FFFFFF;}
</style>
<sodipodi:namedview  bordercolor="#666666" borderopacity="1.0" fit-margin-bottom="0" fit-margin-left="0" fit-margin-right="0" fit-margin-top="0" id="base" inkscape:current-layer="layer1" inkscape:cx="27.142857" inkscape:cy="28.571429" inkscape:document-units="px" inkscape:pageopacity="0.0" inkscape:pageshadow="2" inkscape:window-height="1016" inkscape:window-maximized="1" inkscape:window-width="1850" inkscape:window-x="70" inkscape:window-y="27" inkscape:zoom="4.8766667" pagecolor="#ffffff" showgrid="false" units="px">
	</sodipodi:namedview>
<g id="layer1" transform="translate(-193.633,-739.48031)" inkscape:groupmode="layer" inkscape:label="Calque 1">
	<polygon id="polygon2989" class="st0" points="992.5,743.1 919.7,1558.4 592.6,1649.1 266.3,1558.6 193.6,743.1 	"/>
	<polygon id="polygon2991" class="st1" points="593.1,1579.8 857.4,1506.5 919.6,809.8 593.1,809.8 	"/>
	<polygon id="polygon2993" class="st2" points="593.1,1112.2 360.3,1112.2 369.3,1212.2 593.1,1212.2 	"/>
	<polygon id="polygon2995" class="st2" points="593.1,909.8 592.7,909.8 342.3,909.8 351.4,1009.8 593.1,1009.8 	"/>
	<polygon id="polygon2997" class="st2" points="373.7,1262.2 387.7,1419.3 592.6,1476.1 593.1,1476 593.1,1372 592.6,1372.1 
		481.2,1342 474.1,1262.2 420,1262.2 	"/>
	<polygon id="polygon3005" class="st3" points="715.9,1212.2 704.2,1341.9 592.7,1372.1 592.7,1476.1 797.7,1419.3 799.2,1402.4 
		822.7,1139.1 825.2,1112.2 843.2,909.8 592.7,909.8 592.7,1009.8 733.6,1009.8 724.5,1112.2 592.7,1112.2 592.7,1212.2 	"/>
</g>
</svg>
