<?xml version="1.0" encoding="utf-8"?>
<!-- Generator: Adobe Illustrator 27.5.0, SVG Export Plug-In . SVG Version: 6.00 Build 0)  -->
<svg version="1.1" id="Layer_1" xmlns="http://www.w3.org/2000/svg" xmlns:xlink="http://www.w3.org/1999/xlink" x="0px" y="0px"
	 viewBox="0 0 64 53" style="enable-background:new 0 0 64 53;" xml:space="preserve">
<style type="text/css">
	.st0{fill:#FFFFFF;}
	.st1{fill:#EA4335;}
	.st2{fill:#4285F4;}
	.st3{fill:#34A853;}
	.st4{fill:#FBBC05;}
</style>
<g id="Layer_3">
	<path class="st0" d="M48.5,18.4c-4.4-4.6-11.8-8.2-18.1-9.1c-4.5-0.6-9.1,1.1-10.5,5.9c-0.9,3.3,0.6,7.9,3.8,9.7
		c-4.2,0-8.3,1-11.9,3.5c-6.3,4.4-4.9,12.9,2,15.5c2.8,1.1,5.8,1.5,8.8,1.2c2.6-0.2,4.5-1.4,5.9-3c3.4,0.7,6.9,2,9.7,2.3
		c6.3,0.7,16-0.6,18-7.9C57.9,30.8,52.5,22.6,48.5,18.4z"/>
</g>
<path class="st1" d="M40.7,15.8h2l5.6-5.6l0.3-2.4C44.2,4,38.4,1.6,32,1.6c-11.5,0-21.3,7.9-24.2,18.5C8.4,19.7,9.7,20,9.7,20
	l11.1-1.8c0,0,0.6-0.9,0.9-0.9c2.6-2.9,6.4-4.5,10.3-4.5C35.3,12.7,38.3,13.8,40.7,15.8L40.7,15.8z"/>
<path class="st2" d="M56.2,20.1c-1.3-4.8-4-9-7.6-12.2l-7.9,7.9c3.2,2.5,5.2,6.5,5.2,10.8V28c3.8,0,7,3.1,7,7c0,3.8-3.1,7-7,7H32
	l-1.4,1.3v8.3L32,53h13.9c10,0,18.1-8.1,18.1-18.1C64,28.8,60.9,23.3,56.2,20.1L56.2,20.1z"/>
<path class="st3" d="M18.1,53H32V41.9H18.1c-1,0-2-0.2-2.9-0.6l-2,0.6l-5.6,5.6l-0.4,1.8C10.3,51.7,14.1,53,18.1,53L18.1,53z"/>
<path class="st4" d="M18.1,16.9C8.1,16.9,0,25,0,35c0,5.9,2.8,11.1,7.2,14.4l8.1-8.1c-2.5-1.1-4.1-3.6-4.1-6.3c0-3.8,3.1-7,7-7
	c2.8,0,5.2,1.7,6.3,4.1l8.1-8.1C29.2,19.7,24,16.9,18.1,16.9L18.1,16.9z"/>
</svg>
