<?xml version="1.0" encoding="utf-8"?>
<!-- Generator: Adobe Illustrator 27.5.0, SVG Export Plug-In . SVG Version: 6.00 Build 0)  -->
<svg version="1.1" id="Layer_1" xmlns="http://www.w3.org/2000/svg" xmlns:xlink="http://www.w3.org/1999/xlink" x="0px" y="0px"
	 viewBox="0 0 253 153" style="enable-background:new 0 0 253 153;" xml:space="preserve">
<style type="text/css">
	.st0{fill-rule:evenodd;clip-rule:evenodd;fill:url(#SVGID_1_);}
	.st1{fill-rule:evenodd;clip-rule:evenodd;fill:#24292E;}
</style>
<g>
	
		<linearGradient id="SVGID_1_" gradientUnits="userSpaceOnUse" x1="-1.3346" y1="374.0119" x2="243.5045" y2="-34.0509" gradientTransform="matrix(1 0 0 -1 1.333 248)">
		<stop  offset="0" style="stop-color:#2383AE"/>
		<stop  offset="1" style="stop-color:#6DD7B9"/>
	</linearGradient>
	<path class="st0" d="M61.2,53.5c8.2-32.7,28.6-49,61.2-49c49,0,55.1,36.7,79.6,42.8c16.3,4.1,30.6-2,42.8-18.4
		c-8.2,32.6-28.6,49-61.2,49c-49,0-55.1-36.7-79.6-42.8C87.7,31.1,73.5,37.2,61.2,53.5L61.2,53.5z M0,127c8.2-32.7,28.6-49,61.2-49
		c49,0,55.1,36.7,79.6,42.8c16.3,4.1,30.6-2,42.8-18.4c-8.2,32.7-28.6,49-61.2,49c-49,0-55.1-36.7-79.6-42.8
		C26.5,104.6,12.2,110.7,0,127z"/>
	<path class="st1" d="M289.4,61h-16v-9.6h43.2V61h-16v43.5h-11.2V61z M337.5,99.7c-1.5,1.7-3.2,3.1-5.2,4.2
		c-1.9,1.1-4.4,1.6-7.4,1.6c-1.7,0-3.3-0.2-5-0.7c-1.6-0.4-2.9-1.1-4.1-2.1c-1.2-0.9-2.1-2.1-2.8-3.6c-0.7-1.5-1.1-3.2-1.1-5.3
		c0-2.7,0.6-4.9,1.8-6.6c1.2-1.7,2.8-3.1,4.7-3.9c1.9-0.9,4.1-1.6,6.5-2c2.4-0.4,4.9-0.6,7.4-0.7l5-0.2v-1.9c0-2.4-0.7-4-2-4.9
		c-1.3-0.9-2.9-1.3-4.7-1.3c-4.1,0-6.5,1.6-7.1,4.7l-9.5-0.9c0.7-4.1,2.5-7,5.4-8.8c2.9-1.8,6.8-2.7,11.6-2.7c3,0,5.5,0.4,7.6,1.1
		c2.1,0.7,3.8,1.8,5,3.1c1.3,1.4,2.2,3.1,2.8,4.9c0.6,1.9,0.9,4.1,0.9,6.4v24.6h-9.9V99.7L337.5,99.7z M337.3,87.2l-4.6,0.2
		c-2.2,0.1-4,0.3-5.3,0.7s-2.4,0.8-3.1,1.3c-0.7,0.5-1.2,1.1-1.5,1.8c-0.2,0.7-0.4,1.5-0.4,2.3c0,1.3,0.4,2.3,1.3,3
		c0.9,0.7,2.1,1.1,3.7,1.1c2.7,0,4.9-0.6,6.6-1.9c0.9-0.7,1.7-1.6,2.3-2.6c0.6-1.1,0.9-2.4,0.9-4L337.3,87.2L337.3,87.2z
		 M355.9,65.7h10.4v38.8h-10.4V65.7z M355.7,51.4h10.7v9.4h-10.7V51.4z M375.2,51.4h10.4v53.1h-10.4V51.4z M390.3,65.7h11.3
		l5.4,25.8l7.4-25.4h9.1l7,25.5l5.4-25.8H447l-11.3,38.8h-10.1l-6.9-25.6l-7,25.6h-9.9L390.3,65.7L390.3,65.7z M451.7,65.7h10.4
		v38.8h-10.4V65.7z M451.6,51.4h10.7v9.4h-10.7V51.4z M471,65.7h10.1v5.4c1.5-2.3,3.4-3.9,5.5-5c2.1-1,4.3-1.6,6.6-1.6
		c4.4,0,7.7,1.2,9.8,3.5s3.2,5.9,3.2,10.9v25.7h-10.4V80.3c0-2.8-0.5-4.6-1.6-5.6s-2.4-1.5-4.2-1.5c-1.3,0-2.5,0.2-3.5,0.6
		s-1.9,1-2.7,1.7c-0.7,0.7-1.3,1.5-1.8,2.5c-0.5,1-0.7,2.1-0.7,3.2v23.4h-10.5L471,65.7L471,65.7z M541.6,99.5
		c-2.7,4.1-7.2,6.4-12.1,6.3c-5.5,0-9.5-1.8-12.2-5.5c-2.7-3.7-4-8.8-4-15.3c0-2.8,0.4-5.6,1.2-8.3c0.8-2.5,1.9-4.7,3.3-6.5
		c1.4-1.8,3.2-3.2,5.3-4.2c2.1-1,4.4-1.5,7.1-1.5c1.9,0,3.9,0.4,5.8,1.1c1.9,0.7,3.7,2.1,5.4,4V51.5h10.4v53.1h-10.1L541.6,99.5
		L541.6,99.5z M541.4,84.7c0-2.5-0.2-4.5-0.7-6s-1.1-2.7-2-3.6c-0.9-0.9-1.9-1.4-2.9-1.8c-1-0.3-2.1-0.4-3.2-0.4
		c-1.1,0-2.2,0.2-3.2,0.7c-1,0.4-1.9,1.1-2.7,2.1s-1.4,2.2-1.8,3.7s-0.7,3.4-0.7,5.5c0,2.3,0.2,4.3,0.7,5.8c0.5,1.6,1,2.8,1.8,3.8
		s1.6,1.7,2.6,2.1c1,0.4,2.1,0.7,3.2,0.7c2.5,0,4.5-0.7,6.1-2.2c1-1,1.8-2.3,2.2-3.6c0.5-1.4,0.7-3.2,0.7-5.5L541.4,84.7L541.4,84.7
		z M623,86.2c-0.3,2.8-0.9,5.4-2,7.8c-1,2.4-2.5,4.5-4.4,6.3c-2,1.8-4.3,3.2-6.9,4.1c-2.7,1-5.8,1.5-9.4,1.5c-4,0-7.6-0.7-10.6-2
		c-3-1.3-5.6-3.2-7.7-5.7c-2.1-2.4-3.6-5.4-4.7-8.8c-1-3.5-1.6-7.3-1.6-11.4c0-4.3,0.6-8.2,1.7-11.6c1.1-3.4,2.8-6.3,4.9-8.8
		c2.1-2.4,4.7-4.3,7.7-5.6c3-1.3,6.5-1.9,10.3-1.9c3.4,0,6.3,0.4,8.8,1.3c2.5,0.8,4.6,2.1,6.3,3.6c1.7,1.6,3.1,3.5,4.1,5.7
		c1.1,2.4,1.9,4.9,2.3,7.5l-11,1.4c-0.5-3.1-1.6-5.6-3.2-7.4c-1.5-1.8-4-2.7-7.4-2.7c-4.3,0-7.5,1.6-9.7,4.8
		c-2.2,3.2-3.3,7.7-3.3,13.6c0,5.9,1.2,10.5,3.5,13.6c2.2,3.1,5.7,4.9,9.5,4.8c3.4,0,6-0.9,7.6-2.6s2.6-4.3,3-7.6L623,86.2z
		 M639.2,87.3c0.2,3.3,1.3,5.7,3.2,7.1c1.8,1.5,4.6,2.2,8.2,2.2c1.7,0,3.2-0.2,4.4-0.6s2.2-0.9,2.9-1.5c0.7-0.6,1.3-1.3,1.6-2.2
		c0.3-0.9,0.5-1.8,0.5-2.8c0-1.4-0.5-2.7-1.6-3.9c-1-1.2-3-2.1-5.7-2.6l-6.9-1.3c-2.8-0.5-5.1-1.1-7.2-1.9c-2.1-0.8-3.8-1.8-5.3-3.1
		c-1.4-1.3-2.5-2.8-3.2-4.7s-1.1-4-1.1-6.6c0-2.3,0.5-4.6,1.5-6.7c1-1.9,2.5-3.6,4.2-4.8c1.8-1.3,4-2.3,6.5-2.9c2.5-0.7,5.3-1,8.4-1
		c3.9,0,7.1,0.4,9.7,1.3c2.6,0.9,4.7,2.1,6.3,3.5c1.6,1.5,2.8,3.2,3.5,5.1c0.8,1.9,1.3,3.9,1.5,6l-10.5,1.3c-0.5-2.9-1.6-5-3.2-6.3
		c-1.6-1.3-3.9-1.9-7.1-1.9c-1.9,0-3.4,0.2-4.7,0.5c-1.2,0.3-2.2,0.7-2.9,1.3c-0.7,0.4-1.2,1.1-1.6,1.8c-0.3,0.7-0.4,1.4-0.4,2.2
		c0,2,0.6,3.5,1.7,4.5c1.1,1,3,1.8,5.7,2.3l7.3,1.4c5.8,1.1,10,3,12.7,5.5c2.7,2.5,4,6.3,4,11c0,2.3-0.4,4.5-1.3,6.4
		c-0.9,2-2.2,3.7-3.9,5.1c-1.9,1.6-4.1,2.7-6.4,3.4c-2.6,0.8-5.6,1.2-9.1,1.2c-7.3,0-12.8-1.5-16.7-4.7c-3.8-3.1-5.9-7.7-6.3-14
		L639.2,87.3L639.2,87.3z M687.6,87.3c0.2,3.3,1.3,5.7,3.2,7.1c1.8,1.5,4.6,2.2,8.2,2.2c1.8,0,3.2-0.2,4.4-0.6s2.2-0.9,2.9-1.5
		c0.7-0.6,1.3-1.3,1.6-2.2c0.3-0.9,0.5-1.8,0.5-2.8c0-1.5-0.6-2.8-1.6-3.9c-1.1-1.2-3-2.1-5.7-2.6l-6.9-1.3
		c-2.8-0.5-5.1-1.1-7.2-1.9c-2.1-0.8-3.8-1.8-5.3-3.1c-1.4-1.3-2.5-2.8-3.2-4.7s-1.1-4-1.1-6.6c0-2.3,0.5-4.6,1.5-6.7
		c1-1.9,2.4-3.6,4.2-4.9c1.8-1.4,4-2.3,6.5-2.9c2.5-0.7,5.3-1,8.4-1c3.9,0,7.1,0.4,9.7,1.3c2.6,0.9,4.7,2.1,6.3,3.5s2.8,3.2,3.5,5.1
		c0.8,1.9,1.3,3.9,1.5,6l-10.5,1.3c-0.5-2.9-1.6-5-3.2-6.3c-1.6-1.3-3.9-1.9-7.1-1.9c-1.9,0-3.4,0.2-4.7,0.5
		c-1.2,0.3-2.2,0.7-2.9,1.3c-0.7,0.4-1.2,1.1-1.6,1.8c-0.3,0.7-0.4,1.4-0.4,2.2c0,2,0.6,3.5,1.7,4.5c1.1,1,3,1.8,5.7,2.3l7.4,1.5
		c5.8,1.1,10,3,12.7,5.5c2.7,2.5,4,6.3,4,11c0,2.2-0.4,4.4-1.3,6.4c-0.9,2-2.2,3.7-3.9,5.1c-1.7,1.5-3.9,2.6-6.4,3.4
		s-5.6,1.2-9.1,1.2c-7.3,0-12.8-1.5-16.7-4.7c-3.9-3.1-5.9-7.7-6.2-14L687.6,87.3z"/>
</g>
</svg>
